<svg version="1.1" id="Layer_1" xmlns="http://www.w3.org/2000/svg" xmlns:xlink="http://www.w3.org/1999/xlink" x="0px" y="0px" viewBox="0 0 150 150" style="enable-background:new 0 0 150 150;" xml:space="preserve">
<style type="text/css">
	.st0{fill:#343840;}
	.st1{fill:#FFFFFF;}
</style>
<circle class="st0" cx="75" cy="75" r="73.4" id="id_101" style="fill: rgb(0, 0, 0);"></circle>
<path class="st1" d="M58.5,84.5c-1.2-0.2-7.6,4.9-7.6,4.9s-10.6,13.1-20,6.1c-13.2-9.9,0.4-20.2,0.4-20.2c-8.6-4.3-6.9-19,3.1-22
	c10-2.9,13.5,2.7,16.9,7.6c3.3,4.9,6.9,4.5,6.9,4.5h33.8c0,0,3.5,0.4,6.9-4.5s6.9-10.6,16.9-7.6c10,2.9,11.8,17.6,3.1,22
	c0,0,13.5,10.3,0.4,20.2c-9.4,7.1-20-6.1-20-6.1s-6.4-5.1-7.6-4.9H58.5z" id="id_102" style="fill: rgb(255, 255, 255);"></path>
</svg>