<?xml version="1.0" encoding="UTF-8"?>
<svg xmlns="http://www.w3.org/2000/svg" xmlns:xlink="http://www.w3.org/1999/xlink" width="35px" height="35px" viewBox="0 0 35 35" version="1.1">
<g id="surface1" width="100%" height="100%">
<path style=" stroke:none;fill-rule:nonzero;fill:rgb(0%,0%,0%);fill-opacity:1;" d="M 34.625 17.5 C 34.625 26.957031 26.957031 34.625 17.5 34.625 C 8.042969 34.625 0.375 26.957031 0.375 17.5 C 0.375 8.042969 8.042969 0.375 17.5 0.375 C 26.957031 0.375 34.625 8.042969 34.625 17.5 Z M 34.625 17.5 "/>
<path style=" stroke:none;fill-rule:nonzero;fill:rgb(100%,100%,100%);fill-opacity:1;" d="M 13.648438 19.714844 C 13.371094 19.671875 11.875 20.859375 11.875 20.859375 C 11.875 20.859375 9.402344 23.917969 7.210938 22.285156 C 4.128906 19.972656 7.304688 17.570312 7.304688 17.570312 C 5.296875 16.566406 5.691406 13.136719 8.027344 12.4375 C 10.359375 11.761719 11.175781 13.066406 11.96875 14.210938 C 12.738281 15.351562 13.578125 15.261719 13.578125 15.261719 L 21.464844 15.261719 C 21.464844 15.261719 22.285156 15.351562 23.078125 14.210938 C 23.871094 13.066406 24.6875 11.738281 27.019531 12.4375 C 29.351562 13.113281 29.773438 16.542969 27.742188 17.570312 C 27.742188 17.570312 30.894531 19.972656 27.835938 22.285156 C 25.644531 23.941406 23.171875 20.859375 23.171875 20.859375 C 23.171875 20.859375 21.675781 19.671875 21.398438 19.714844 Z M 13.648438 19.714844 "/>
</g>
</svg>
